<!DOCTYPE svg PUBLIC "-//W3C//DTD SVG 1.1//EN" "http://www.w3.org/Graphics/SVG/1.1/DTD/svg11.dtd">
<!-- Uploaded to: SVG Repo, www.svgrepo.com, Transformed by: SVG Repo Mixer Tools -->
<svg fill="#ffffff" version="1.1" id="Capa_1" xmlns="http://www.w3.org/2000/svg" xmlns:xlink="http://www.w3.org/1999/xlink" width="800px" height="800px" viewBox="0 0 45.222 45.222" xml:space="preserve">

<g id="SVGRepo_bgCarrier" stroke-width="0"/>

<g id="SVGRepo_tracerCarrier" stroke-linecap="round" stroke-linejoin="round"/>

<g id="SVGRepo_iconCarrier"> <g> <g> <path d="M22.611,0C10.143,0,0,10.143,0,22.611c0,12.467,10.143,22.61,22.611,22.61c12.467,0,22.611-10.144,22.611-22.61 C45.222,10.143,35.078,0,22.611,0z M22.611,38.244c-8.62,0-15.633-7.014-15.633-15.633c0-8.621,7.013-15.633,15.633-15.633 c8.62,0,15.633,7.013,15.633,15.633C38.244,31.23,31.23,38.244,22.611,38.244z"/> <path d="M26.035,19.12v-2.989c0-1.927-1.58-3.489-3.507-3.489c-1.927,0-3.507,1.562-3.507,3.489v6.479 c0,1.928,1.585,3.459,3.512,3.459h9.47c1.927,0,3.489-1.547,3.489-3.475c0-1.927-1.562-3.474-3.489-3.474H26.035L26.035,19.12z"/> </g> </g> </g>

</svg>